<?xml version="1.0" ?><svg height="32" id="svg2" version="1.1" viewBox="0 0 32 32.000001" width="32" xmlns="http://www.w3.org/2000/svg" xmlns:cc="http://creativecommons.org/ns#" xmlns:dc="http://purl.org/dc/elements/1.1/" xmlns:inkscape="http://www.inkscape.org/namespaces/inkscape" xmlns:rdf="http://www.w3.org/1999/02/22-rdf-syntax-ns#" xmlns:sodipodi="http://sodipodi.sourceforge.net/DTD/sodipodi-0.dtd" xmlns:svg="http://www.w3.org/2000/svg"><defs id="defs4"/><g id="layer1" transform="translate(0,-1020.3622)"><path d="m 22.24996,1048.3569 c 3.36064,0.017 3.30535,-0.012 3.74613,-0.01 -0.59361,-0.661 -0.96484,-1.5258 -0.96484,-2.4871 0,-0.9639 0.37235,-1.8313 0.96875,-2.4931 -5.5013,-0.01 -11.9987,0 -17.5,0 -1.385,0 -2.5,1.1119 -2.5,2.4931 0,1.3811 1.115,2.493 2.5,2.493 1.30832,-0.037 4.52665,0.014 6.24996,0" id="path11710" style="opacity:1;fill:none;fill-opacity:1;stroke:#000000;stroke-width:0.99999994;stroke-linecap:round;stroke-linejoin:round;stroke-miterlimit:4;stroke-dasharray:none;stroke-opacity:1"/><path d="m 6,1045.8623 0,-21 a 3,3 0 0 1 3,-3 l 15.5,0 a 1.5,1.5 0 0 1 1.5,1.5 l 0,20" id="path11712" style="fill:none;fill-rule:evenodd;stroke:#000000;stroke-width:1px;stroke-linecap:butt;stroke-linejoin:miter;stroke-opacity:1"/><path d="m 16.5,1045.3623 0,5 2,-2 2,2 0,-5 z" id="path11714" style="fill:none;fill-opacity:0;fill-rule:evenodd;stroke:#000000;stroke-width:1px;stroke-linecap:butt;stroke-linejoin:round;stroke-opacity:1"/><path d="m 9.49996,1041.8622 0,-18.5" id="path11716" style="fill:none;fill-rule:evenodd;stroke:#000000;stroke-width:1px;stroke-linecap:butt;stroke-linejoin:miter;stroke-opacity:1"/><path d="m 12.50005,1034.8551 0,3.5 2.000001,0" id="path11718" style="fill:none;fill-rule:evenodd;stroke:#000000;stroke-width:1px;stroke-linecap:round;stroke-linejoin:round;stroke-opacity:1"/><path d="m 16.000051,1038.3551 0,-3.5 1.000001,0 1,0 -1e-6,3.5" id="path11720" style="fill:none;fill-rule:evenodd;stroke:#000000;stroke-width:1px;stroke-linecap:round;stroke-linejoin:round;stroke-opacity:1"/><path d="m 16.000051,1036.8551 2,0" id="path11722" style="fill:none;fill-rule:evenodd;stroke:#000000;stroke-width:1px;stroke-linecap:butt;stroke-linejoin:miter;stroke-opacity:1"/><path d="m 22.7501,1034.8622 0,3.493 -1.5,-1.497 -1.5,1.497 0,-3.493" id="path11724" style="fill:none;fill-rule:evenodd;stroke:#000000;stroke-width:1px;stroke-linecap:round;stroke-linejoin:round;stroke-opacity:1"/><path d="m 15.5,1045.3623 6,0" id="path11728" style="fill:none;fill-rule:evenodd;stroke:#000000;stroke-width:1px;stroke-linecap:round;stroke-linejoin:round;stroke-opacity:1"/><path d="m 15,1027.0701 2.5,-1.2222 2.5,1.2222 c 0,2.4445 -0.3125,3.5556 -2.5,4.7778 -2.1875,-1.2222 -2.5,-2.3333 -2.5,-4.7778 z" id="path11730" style="fill:none;fill-rule:evenodd;stroke:#000000;stroke-width:1px;stroke-linecap:round;stroke-linejoin:round;stroke-opacity:1"/></g></svg>