<?xml version="1.0" ?><svg height="32" id="svg2" version="1.1" viewBox="0 0 32 32.000001" width="32" xmlns="http://www.w3.org/2000/svg" xmlns:cc="http://creativecommons.org/ns#" xmlns:dc="http://purl.org/dc/elements/1.1/" xmlns:inkscape="http://www.inkscape.org/namespaces/inkscape" xmlns:rdf="http://www.w3.org/1999/02/22-rdf-syntax-ns#" xmlns:sodipodi="http://sodipodi.sourceforge.net/DTD/sodipodi-0.dtd" xmlns:svg="http://www.w3.org/2000/svg"><defs id="defs4"/><g id="layer1" transform="translate(0,-1020.3622)"><path d="m 2.5,1029.8622 13.5,-5 13.5,5 -13.5,6.5 z" id="path11136" style="fill:none;fill-rule:evenodd;stroke:#000000;stroke-width:1px;stroke-linecap:round;stroke-linejoin:round;stroke-opacity:1"/><path d="m 23.5,1032.8622 0,6 c 0,1.3804 -3.356396,2.9996 -7.497591,3 -4.141202,4e-4 -7.499757,-1.618 -7.502407,-2.9984 l -2e-6,-6.0016" id="path11138" style="fill:none;fill-rule:evenodd;stroke:#000000;stroke-width:1px;stroke-linecap:butt;stroke-linejoin:miter;stroke-opacity:1"/><path d="m 4,1030.3622 0,12.5" id="path11140" style="fill:none;fill-rule:evenodd;stroke:#000000;stroke-width:1px;stroke-linecap:butt;stroke-linejoin:miter;stroke-opacity:1"/><path d="m 4,1042.8622 c 0,0 1.25,2 1.25,3.5 0,1 -0.625,1.5 -1.25,1.5 -0.625001,0 -1.25,-0.5 -1.25,-1.5 0,-1.5 1.25,-3.5 1.25,-3.5 z" id="path11142" style="opacity:1;fill:none;fill-opacity:1;stroke:#000000;stroke-width:1;stroke-linecap:round;stroke-linejoin:round;stroke-miterlimit:4;stroke-dasharray:none;stroke-opacity:1"/></g></svg>