<?xml version="1.0" ?><svg height="32" id="svg2" version="1.1" viewBox="0 0 32 32.000001" width="32" xmlns="http://www.w3.org/2000/svg" xmlns:cc="http://creativecommons.org/ns#" xmlns:dc="http://purl.org/dc/elements/1.1/" xmlns:inkscape="http://www.inkscape.org/namespaces/inkscape" xmlns:rdf="http://www.w3.org/1999/02/22-rdf-syntax-ns#" xmlns:sodipodi="http://sodipodi.sourceforge.net/DTD/sodipodi-0.dtd" xmlns:svg="http://www.w3.org/2000/svg"><defs id="defs4"/><g id="layer1" transform="translate(0,-1020.3622)"><path d="m 11.74993,1047.3622 -4,-2e-4 c -0.9665,-10e-5 -1.75,-0.7835 -1.75,-1.75 l 0,-10.9997 0,-9.2499 m 21.75001,17.9998 1.74999,-6e-4 0,2.2499 c 0.01,0.9608 -0.51071,1.7063 -1.625,1.75 -1.04362,-0.01 -1.88662,-0.8434 -1.875,-1.75 l 0,-21.9993 c 0,-0.9665 -0.7835,-1.75 -1.75,-1.75 l 0,0 c -0.9665,0 -1.75,0.7835 -1.75,1.75 l 0,1.75 -20,0 0,-1.75 c 0,-0.9665 0.7835,-1.75 1.75,-1.75 l 20,0" id="path10973" style="fill:none;fill-rule:evenodd;stroke:#000000;stroke-width:1px;stroke-linecap:round;stroke-linejoin:round;stroke-opacity:1"/><path d="m 20.19985,1041.0775 a 4.25,4.2498975 0 0 1 -4.25,4.2499 4.25,4.2498975 0 0 1 -4.25,-4.2499 4.25,4.2498975 0 0 1 4.25,-4.2499 4.25,4.2498975 0 0 1 4.25,4.2499 z" id="ellipse10975" style="opacity:1;fill:none;fill-opacity:1;stroke:#000000;stroke-width:1;stroke-linecap:round;stroke-linejoin:round;stroke-miterlimit:4;stroke-dasharray:none;stroke-opacity:1"/><path d="m 17.94985,1041.0775 a 2,1.9999518 0 0 1 -2,2 2,1.9999518 0 0 1 -2,-2 2,1.9999518 0 0 1 2,-1.9999 2,1.9999518 0 0 1 2,1.9999 z" id="ellipse10977" style="opacity:1;fill:none;fill-opacity:1;stroke:#000000;stroke-width:1;stroke-linecap:round;stroke-linejoin:round;stroke-miterlimit:4;stroke-dasharray:none;stroke-opacity:1"/><path d="m 13.49993,1044.3617 0,6.4998 2.5,-1.5 2.5,1.5 0,-6.4998" id="path10979" style="fill:none;fill-rule:evenodd;stroke:#000000;stroke-width:1.00157475;stroke-linecap:butt;stroke-linejoin:round;stroke-miterlimit:4;stroke-dasharray:none;stroke-opacity:1"/><path d="m 15.94985,1037.0276 0,2.4208" id="path10981" style="fill:none;fill-rule:evenodd;stroke:#000000;stroke-width:1px;stroke-linecap:butt;stroke-linejoin:miter;stroke-opacity:1"/><path d="m 11.69985,1041.0775 2.07502,0" id="path10983" style="fill:none;fill-rule:evenodd;stroke:#000000;stroke-width:1px;stroke-linecap:butt;stroke-linejoin:miter;stroke-opacity:1"/><path d="m 17.92491,1041.0775 2.07502,0" id="path10985" style="fill:none;fill-rule:evenodd;stroke:#000000;stroke-width:1px;stroke-linecap:butt;stroke-linejoin:miter;stroke-opacity:1"/><path d="m 15.94985,1043.2526 0,5.879" id="path10987" style="fill:none;fill-rule:evenodd;stroke:#000000;stroke-width:1px;stroke-linecap:butt;stroke-linejoin:miter;stroke-opacity:1"/><path d="m 20.24993,1047.3622 7.75,-6e-4" id="path10989" style="fill:none;fill-rule:evenodd;stroke:#000000;stroke-width:1px;stroke-linecap:round;stroke-linejoin:round;stroke-opacity:1"/><path d="m 13.74281,1028.1124 -3.73576,10e-5" id="path10991" style="fill:none;fill-rule:evenodd;stroke:#000000;stroke-width:0.99999994px;stroke-linecap:round;stroke-linejoin:round;stroke-opacity:1"/><path d="m 21.98569,1028.1125 -1.48576,-10e-5" id="path10993" style="fill:none;fill-rule:evenodd;stroke:#000000;stroke-width:1px;stroke-linecap:round;stroke-linejoin:round;stroke-opacity:1"/><path d="m 18.7429,1028.1123 -3.23595,0" id="path10995" style="fill:none;fill-rule:evenodd;stroke:#000000;stroke-width:0.99999988px;stroke-linecap:round;stroke-linejoin:round;stroke-opacity:1"/><path d="m 16.74281,1030.1123 -6.73576,-2e-4" id="path10997" style="fill:none;fill-rule:evenodd;stroke:#000000;stroke-width:1px;stroke-linecap:round;stroke-linejoin:round;stroke-opacity:1"/><path d="m 12.00687,1034.1122 7.98594,0" id="path10999" style="fill:none;fill-rule:evenodd;stroke:#000000;stroke-width:1px;stroke-linecap:round;stroke-linejoin:round;stroke-opacity:1"/><path d="m 21.99281,1030.1121 -3.48576,2e-4" id="path11001" style="fill:none;fill-rule:evenodd;stroke:#000000;stroke-width:1px;stroke-linecap:round;stroke-linejoin:round;stroke-opacity:1"/><path d="m 11.49281,1032.1123 -1.48576,-2e-4" id="path11003" style="fill:none;fill-rule:evenodd;stroke:#000000;stroke-width:1px;stroke-linecap:round;stroke-linejoin:round;stroke-opacity:1"/><path d="m 21.99281,1032.1121 -4.23576,2e-4" id="path11005" style="fill:none;fill-rule:evenodd;stroke:#000000;stroke-width:1px;stroke-linecap:round;stroke-linejoin:round;stroke-opacity:1"/><path d="m 15.99281,1032.1123 -2.73576,-10e-5" id="path11007" style="fill:none;fill-rule:evenodd;stroke:#000000;stroke-width:1px;stroke-linecap:round;stroke-linejoin:round;stroke-opacity:1"/></g></svg>